<svg width="442" height="223" viewBox="0 0 442 223" fill="none" xmlns="http://www.w3.org/2000/svg">
<rect width="442" height="223" rx="2" fill="white"/>
<path id="tint001" d="M211.701 223C288.534 182.986 341 102.62 341 10C341 6.65019 340.931 3.31642 340.795 0L2 0C0.895431 0 0 0.895427 0 2V221C0 222.105 0.89543 223 2 223H211.701Z" fill="#03A4FA"/>
<g filter="url(#filter0_d)">
<path id="tint004" fill-rule="evenodd" clip-rule="evenodd" d="M370.615 204.236H321.385L327.539 176.693H364.462L370.615 204.236" fill="#E0E0E0"/>
<path id="tint005" fill-rule="evenodd" clip-rule="evenodd" d="M315.231 207H376.769V201.091H315.231V207Z" fill="#EEEEEE"/>
<path id="tint005" fill-rule="evenodd" clip-rule="evenodd" d="M266 164.493V176.693C266 180.047 268.769 182.792 272.154 182.792H419.846C423.231 182.792 426 180.047 426 176.693V164.493H266" fill="#EEEEEE"/>
<path id="tint004" fill-rule="evenodd" clip-rule="evenodd" d="M419.846 73H272.154C268.769 73 266 75.7448 266 79.0996V164.493H426V79.0996C426 75.7448 423.231 73 419.846 73" fill="#E0E0E0"/>
<path id="tint004" fill-rule="evenodd" clip-rule="evenodd" d="M419.846 73H272.154C268.769 73 266 75.7448 266 79.0996V164.493H426V79.0996C426 75.7448 423.231 73 419.846 73" fill="#E0E0E0"/>
<rect x="272" y="79.2671" width="148" height="79.2142" fill="white"/>
<path id="tint001" class="tint001" fill-rule="evenodd" clip-rule="evenodd" d="M421.008 94.7863C421.734 95.619 421.647 96.8824 420.814 97.608L398.371 117.164C396.158 119.092 392.875 119.136 390.611 117.268L371.116 101.182C370.536 100.703 369.738 100.59 369.048 100.889L347.8 110.094C347.632 110.167 347.475 110.262 347.334 110.377L324.571 128.859C322.893 130.221 320.612 130.576 318.599 129.787L298.28 121.823C297.796 121.633 297.257 121.64 296.777 121.841L272.273 132.106C271.254 132.533 270.082 132.053 269.655 131.034C269.229 130.015 269.708 128.843 270.727 128.417L295.232 118.151C296.67 117.548 298.287 117.53 299.74 118.099L320.059 126.063C320.73 126.326 321.49 126.208 322.049 125.754L344.813 107.271C345.237 106.926 345.707 106.641 346.21 106.424L367.458 97.2187C369.527 96.3226 371.923 96.6616 373.662 98.0964L372.389 99.6391L373.662 98.0964L393.157 114.183C393.911 114.805 395.006 114.791 395.743 114.148L418.186 94.5923C419.019 93.8666 420.282 93.9535 421.008 94.7863Z" fill="#03A4FA"/>
<path id="tint002" fill-rule="evenodd" clip-rule="evenodd" d="M421.806 85.3387C422.281 86.336 421.857 87.5294 420.86 88.0042L396.009 99.8342C395.635 100.012 395.326 100.302 395.123 100.663L376.505 133.928C374.132 138.168 367.967 137.976 365.862 133.598L346.552 93.4455C345.967 92.2307 344.373 91.9299 343.387 92.8483L322.589 112.206C322.514 112.276 322.444 112.352 322.38 112.433L302.738 137.379C300.324 140.444 295.674 140.427 293.283 137.345L269.92 107.228C269.243 106.355 269.401 105.099 270.274 104.422C271.147 103.745 272.403 103.903 273.08 104.776L296.443 134.893C297.24 135.921 298.79 135.926 299.595 134.905L319.237 109.958C319.428 109.716 319.638 109.488 319.864 109.278L340.661 89.9203C343.621 87.1652 348.404 88.0675 350.156 91.7119L369.466 131.865C370.168 133.324 372.223 133.388 373.014 131.975L391.633 98.7096C392.24 97.6255 393.168 96.7565 394.29 96.2226L419.14 84.3925C420.138 83.9177 421.331 84.3414 421.806 85.3387Z" fill="#FFCA28"/>
<path fill-rule="evenodd" clip-rule="evenodd" d="M395.307 88.4305C394.586 87.1982 392.843 87.0969 391.984 88.2373L372.959 113.489C372.123 114.597 370.929 115.382 369.58 115.709L347.937 120.957C347.465 121.072 347.05 121.355 346.771 121.753L326.667 150.419C323.998 154.225 318.202 153.681 316.287 149.445L296.326 105.289C296.117 104.828 295.742 104.463 295.276 104.268L270.727 93.9841C269.708 93.5573 269.229 92.3854 269.655 91.3666C270.082 90.3479 271.254 89.868 272.273 90.2947L296.822 100.579C298.221 101.165 299.346 102.259 299.971 103.641L319.932 147.798C320.57 149.21 322.502 149.391 323.392 148.122L343.496 119.456C344.334 118.262 345.577 117.414 346.995 117.07L368.638 111.822C369.088 111.713 369.485 111.451 369.764 111.082L388.789 85.8303C391.367 82.4091 396.596 82.7132 398.759 86.41L421.226 124.795C421.784 125.748 421.464 126.974 420.51 127.532C419.557 128.089 418.332 127.769 417.774 126.816L395.307 88.4305Z" fill="#F06292"/>
</g>
<defs>
<filter id="filter0_d" x="266" y="73" width="160" height="138" filterUnits="userSpaceOnUse" color-interpolation-filters="sRGB">
<feFlood flood-opacity="0" result="BackgroundImageFix"/>
<feColorMatrix in="SourceAlpha" type="matrix" values="0 0 0 0 0 0 0 0 0 0 0 0 0 0 0 0 0 0 127 0"/>
<feOffset dy="4"/>
<feColorMatrix type="matrix" values="0 0 0 0 0 0 0 0 0 0 0 0 0 0 0 0 0 0 0.14 0"/>
<feBlend mode="normal" in2="BackgroundImageFix" result="effect1_dropShadow"/>
<feBlend mode="normal" in="SourceGraphic" in2="effect1_dropShadow" result="shape"/>
</filter>
</defs>
</svg>
